<?xml version="1.0" encoding="utf-8" standalone="no"?>
<!DOCTYPE svg PUBLIC "-//W3C//DTD SVG 1.1//EN"
  "http://www.w3.org/Graphics/SVG/1.1/DTD/svg11.dtd">
<svg xmlns:xlink="http://www.w3.org/1999/xlink" width="582.810937pt" height="573.473438pt" viewBox="0 0 582.810937 573.473438" xmlns="http://www.w3.org/2000/svg" version="1.1">
 <metadata>
  <rdf:RDF xmlns:dc="http://purl.org/dc/elements/1.1/" xmlns:cc="http://creativecommons.org/ns#" xmlns:rdf="http://www.w3.org/1999/02/22-rdf-syntax-ns#">
   <cc:Work>
    <dc:type rdf:resource="http://purl.org/dc/dcmitype/StillImage"/>
    <dc:date>2024-08-22T15:01:46.911618</dc:date>
    <dc:format>image/svg+xml</dc:format>
    <dc:creator>
     <cc:Agent>
      <dc:title>Matplotlib v3.7.1, https://matplotlib.org/</dc:title>
     </cc:Agent>
    </dc:creator>
   </cc:Work>
  </rdf:RDF>
 </metadata>
 <defs>
  <style type="text/css">*{stroke-linejoin: round; stroke-linecap: butt}</style>
 </defs>
 <g id="figure_1">
  <g id="patch_1">
   <path d="M 0 573.473438 
L 582.810937 573.473438 
L 582.810937 0 
L 0 0 
z
" style="fill: #ffffff"/>
  </g>
  <g id="axes_1">
   <g id="patch_2">
    <path d="M 21.210938 561.6 
L 575.610937 561.6 
L 575.610937 7.2 
L 21.210938 7.2 
z
" style="fill: #ffffff"/>
   </g>
   <g id="patch_3">
    <path d="M 67.410937 7.2 
L 73.185937 18.75 
L 67.434037 15.285 
L 67.434037 561.6 
L 67.387837 561.6 
L 67.387837 15.285 
L 61.635937 18.75 
z
" style="stroke: #000000; stroke-width: 0.3; stroke-linejoin: miter"/>
   </g>
   <g id="patch_4">
    <path d="M 575.610937 515.4 
L 564.060937 521.175 
L 567.525937 515.4231 
L 21.210937 515.4231 
L 21.210937 515.3769 
L 567.525937 515.3769 
L 564.060937 509.625 
z
" style="stroke: #000000; stroke-width: 0.3; stroke-linejoin: miter"/>
   </g>
   <g id="matplotlib.axis_1">
    <g id="xtick_1">
     <g id="line2d_1">
      <path d="M 144.410937 561.6 
L 144.410937 7.2 
" clip-path="url(#p92e14ccc95)" style="fill: none; stroke: #808080; stroke-opacity: 0.2; stroke-linecap: square"/>
     </g>
     <g id="line2d_2">
      <defs>
       <path id="m9b11c14adf" d="M 0 0 
L 0 3.5 
" style="stroke: #000000; stroke-width: 0.8"/>
      </defs>
      <g>
       <use xlink:href="#m9b11c14adf" x="144.410937" y="515.4" style="stroke: #000000; stroke-width: 0.8"/>
      </g>
     </g>
     <g id="text_1">
      <g id="patch_5">
       <path d="M 128.433594 540.967188 
L 160.388281 540.967188 
L 160.388281 518.35 
L 128.433594 518.35 
z
" style="fill: #ffffff; stroke: #ffffff; stroke-linejoin: miter"/>
      </g>
      <!-- 0.5 -->
      <g transform="translate(132.483594 533.797656) scale(0.15 -0.15)">
       <defs>
        <path id="DejaVuSans-30" d="M 2034 4250 
Q 1547 4250 1301 3770 
Q 1056 3291 1056 2328 
Q 1056 1369 1301 889 
Q 1547 409 2034 409 
Q 2525 409 2770 889 
Q 3016 1369 3016 2328 
Q 3016 3291 2770 3770 
Q 2525 4250 2034 4250 
z
M 2034 4750 
Q 2819 4750 3233 4129 
Q 3647 3509 3647 2328 
Q 3647 1150 3233 529 
Q 2819 -91 2034 -91 
Q 1250 -91 836 529 
Q 422 1150 422 2328 
Q 422 3509 836 4129 
Q 1250 4750 2034 4750 
z
" transform="scale(0.015625)"/>
        <path id="DejaVuSans-2e" d="M 684 794 
L 1344 794 
L 1344 0 
L 684 0 
L 684 794 
z
" transform="scale(0.015625)"/>
        <path id="DejaVuSans-35" d="M 691 4666 
L 3169 4666 
L 3169 4134 
L 1269 4134 
L 1269 2991 
Q 1406 3038 1543 3061 
Q 1681 3084 1819 3084 
Q 2600 3084 3056 2656 
Q 3513 2228 3513 1497 
Q 3513 744 3044 326 
Q 2575 -91 1722 -91 
Q 1428 -91 1123 -41 
Q 819 9 494 109 
L 494 744 
Q 775 591 1075 516 
Q 1375 441 1709 441 
Q 2250 441 2565 725 
Q 2881 1009 2881 1497 
Q 2881 1984 2565 2268 
Q 2250 2553 1709 2553 
Q 1456 2553 1204 2497 
Q 953 2441 691 2322 
L 691 4666 
z
" transform="scale(0.015625)"/>
       </defs>
       <use xlink:href="#DejaVuSans-30"/>
       <use xlink:href="#DejaVuSans-2e" x="63.623047"/>
       <use xlink:href="#DejaVuSans-35" x="95.410156"/>
      </g>
     </g>
    </g>
    <g id="xtick_2">
     <g id="line2d_3">
      <path d="M 221.410937 561.6 
L 221.410937 7.2 
" clip-path="url(#p92e14ccc95)" style="fill: none; stroke: #808080; stroke-opacity: 0.2; stroke-linecap: square"/>
     </g>
     <g id="line2d_4">
      <g>
       <use xlink:href="#m9b11c14adf" x="221.410937" y="515.4" style="stroke: #000000; stroke-width: 0.8"/>
      </g>
     </g>
     <g id="text_2">
      <g id="patch_6">
       <path d="M 205.433594 540.967188 
L 237.388281 540.967188 
L 237.388281 518.35 
L 205.433594 518.35 
z
" style="fill: #ffffff; stroke: #ffffff; stroke-linejoin: miter"/>
      </g>
      <!-- 1.0 -->
      <g transform="translate(209.483594 533.797656) scale(0.15 -0.15)">
       <defs>
        <path id="DejaVuSans-31" d="M 794 531 
L 1825 531 
L 1825 4091 
L 703 3866 
L 703 4441 
L 1819 4666 
L 2450 4666 
L 2450 531 
L 3481 531 
L 3481 0 
L 794 0 
L 794 531 
z
" transform="scale(0.015625)"/>
       </defs>
       <use xlink:href="#DejaVuSans-31"/>
       <use xlink:href="#DejaVuSans-2e" x="63.623047"/>
       <use xlink:href="#DejaVuSans-30" x="95.410156"/>
      </g>
     </g>
    </g>
    <g id="xtick_3">
     <g id="line2d_5">
      <path d="M 298.410937 561.6 
L 298.410937 7.2 
" clip-path="url(#p92e14ccc95)" style="fill: none; stroke: #808080; stroke-opacity: 0.2; stroke-linecap: square"/>
     </g>
     <g id="line2d_6">
      <g>
       <use xlink:href="#m9b11c14adf" x="298.410937" y="515.4" style="stroke: #000000; stroke-width: 0.8"/>
      </g>
     </g>
     <g id="text_3">
      <g id="patch_7">
       <path d="M 282.433594 540.967188 
L 314.388281 540.967188 
L 314.388281 518.35 
L 282.433594 518.35 
z
" style="fill: #ffffff; stroke: #ffffff; stroke-linejoin: miter"/>
      </g>
      <!-- 1.5 -->
      <g transform="translate(286.483594 533.797656) scale(0.15 -0.15)">
       <use xlink:href="#DejaVuSans-31"/>
       <use xlink:href="#DejaVuSans-2e" x="63.623047"/>
       <use xlink:href="#DejaVuSans-35" x="95.410156"/>
      </g>
     </g>
    </g>
    <g id="xtick_4">
     <g id="line2d_7">
      <path d="M 375.410937 561.6 
L 375.410937 7.2 
" clip-path="url(#p92e14ccc95)" style="fill: none; stroke: #808080; stroke-opacity: 0.2; stroke-linecap: square"/>
     </g>
     <g id="line2d_8">
      <g>
       <use xlink:href="#m9b11c14adf" x="375.410937" y="515.4" style="stroke: #000000; stroke-width: 0.8"/>
      </g>
     </g>
     <g id="text_4">
      <g id="patch_8">
       <path d="M 359.433594 540.967188 
L 391.388281 540.967188 
L 391.388281 518.35 
L 359.433594 518.35 
z
" style="fill: #ffffff; stroke: #ffffff; stroke-linejoin: miter"/>
      </g>
      <!-- 2.0 -->
      <g transform="translate(363.483594 533.797656) scale(0.15 -0.15)">
       <defs>
        <path id="DejaVuSans-32" d="M 1228 531 
L 3431 531 
L 3431 0 
L 469 0 
L 469 531 
Q 828 903 1448 1529 
Q 2069 2156 2228 2338 
Q 2531 2678 2651 2914 
Q 2772 3150 2772 3378 
Q 2772 3750 2511 3984 
Q 2250 4219 1831 4219 
Q 1534 4219 1204 4116 
Q 875 4013 500 3803 
L 500 4441 
Q 881 4594 1212 4672 
Q 1544 4750 1819 4750 
Q 2544 4750 2975 4387 
Q 3406 4025 3406 3419 
Q 3406 3131 3298 2873 
Q 3191 2616 2906 2266 
Q 2828 2175 2409 1742 
Q 1991 1309 1228 531 
z
" transform="scale(0.015625)"/>
       </defs>
       <use xlink:href="#DejaVuSans-32"/>
       <use xlink:href="#DejaVuSans-2e" x="63.623047"/>
       <use xlink:href="#DejaVuSans-30" x="95.410156"/>
      </g>
     </g>
    </g>
    <g id="xtick_5">
     <g id="line2d_9">
      <path d="M 452.410937 561.6 
L 452.410937 7.2 
" clip-path="url(#p92e14ccc95)" style="fill: none; stroke: #808080; stroke-opacity: 0.2; stroke-linecap: square"/>
     </g>
     <g id="line2d_10">
      <g>
       <use xlink:href="#m9b11c14adf" x="452.410937" y="515.4" style="stroke: #000000; stroke-width: 0.8"/>
      </g>
     </g>
     <g id="text_5">
      <g id="patch_9">
       <path d="M 436.433594 540.967188 
L 468.388281 540.967188 
L 468.388281 518.35 
L 436.433594 518.35 
z
" style="fill: #ffffff; stroke: #ffffff; stroke-linejoin: miter"/>
      </g>
      <!-- 2.5 -->
      <g transform="translate(440.483594 533.797656) scale(0.15 -0.15)">
       <use xlink:href="#DejaVuSans-32"/>
       <use xlink:href="#DejaVuSans-2e" x="63.623047"/>
       <use xlink:href="#DejaVuSans-35" x="95.410156"/>
      </g>
     </g>
    </g>
    <g id="xtick_6">
     <g id="line2d_11">
      <path d="M 529.410937 561.6 
L 529.410937 7.2 
" clip-path="url(#p92e14ccc95)" style="fill: none; stroke: #808080; stroke-opacity: 0.2; stroke-linecap: square"/>
     </g>
     <g id="line2d_12">
      <g>
       <use xlink:href="#m9b11c14adf" x="529.410937" y="515.4" style="stroke: #000000; stroke-width: 0.8"/>
      </g>
     </g>
     <g id="text_6">
      <g id="patch_10">
       <path d="M 513.433594 540.967188 
L 545.388281 540.967188 
L 545.388281 518.35 
L 513.433594 518.35 
z
" style="fill: #ffffff; stroke: #ffffff; stroke-linejoin: miter"/>
      </g>
      <!-- 3.0 -->
      <g transform="translate(517.483594 533.797656) scale(0.15 -0.15)">
       <defs>
        <path id="DejaVuSans-33" d="M 2597 2516 
Q 3050 2419 3304 2112 
Q 3559 1806 3559 1356 
Q 3559 666 3084 287 
Q 2609 -91 1734 -91 
Q 1441 -91 1130 -33 
Q 819 25 488 141 
L 488 750 
Q 750 597 1062 519 
Q 1375 441 1716 441 
Q 2309 441 2620 675 
Q 2931 909 2931 1356 
Q 2931 1769 2642 2001 
Q 2353 2234 1838 2234 
L 1294 2234 
L 1294 2753 
L 1863 2753 
Q 2328 2753 2575 2939 
Q 2822 3125 2822 3475 
Q 2822 3834 2567 4026 
Q 2313 4219 1838 4219 
Q 1578 4219 1281 4162 
Q 984 4106 628 3988 
L 628 4550 
Q 988 4650 1302 4700 
Q 1616 4750 1894 4750 
Q 2613 4750 3031 4423 
Q 3450 4097 3450 3541 
Q 3450 3153 3228 2886 
Q 3006 2619 2597 2516 
z
" transform="scale(0.015625)"/>
       </defs>
       <use xlink:href="#DejaVuSans-33"/>
       <use xlink:href="#DejaVuSans-2e" x="63.623047"/>
       <use xlink:href="#DejaVuSans-30" x="95.410156"/>
      </g>
     </g>
    </g>
    <g id="xtick_7">
     <g id="line2d_13">
      <path d="M 105.910937 561.6 
L 105.910937 7.2 
" clip-path="url(#p92e14ccc95)" style="fill: none; stroke: #808080; stroke-opacity: 0.2; stroke-linecap: square"/>
     </g>
     <g id="line2d_14">
      <defs>
       <path id="m77055f0385" d="M 0 0 
L 0 2 
" style="stroke: #000000; stroke-width: 0.6"/>
      </defs>
      <g>
       <use xlink:href="#m77055f0385" x="105.910937" y="515.4" style="stroke: #000000; stroke-width: 0.6"/>
      </g>
     </g>
    </g>
    <g id="xtick_8">
     <g id="line2d_15">
      <path d="M 182.910937 561.6 
L 182.910937 7.2 
" clip-path="url(#p92e14ccc95)" style="fill: none; stroke: #808080; stroke-opacity: 0.2; stroke-linecap: square"/>
     </g>
     <g id="line2d_16">
      <g>
       <use xlink:href="#m77055f0385" x="182.910937" y="515.4" style="stroke: #000000; stroke-width: 0.6"/>
      </g>
     </g>
    </g>
    <g id="xtick_9">
     <g id="line2d_17">
      <path d="M 259.910937 561.6 
L 259.910937 7.2 
" clip-path="url(#p92e14ccc95)" style="fill: none; stroke: #808080; stroke-opacity: 0.2; stroke-linecap: square"/>
     </g>
     <g id="line2d_18">
      <g>
       <use xlink:href="#m77055f0385" x="259.910937" y="515.4" style="stroke: #000000; stroke-width: 0.6"/>
      </g>
     </g>
    </g>
    <g id="xtick_10">
     <g id="line2d_19">
      <path d="M 336.910937 561.6 
L 336.910937 7.2 
" clip-path="url(#p92e14ccc95)" style="fill: none; stroke: #808080; stroke-opacity: 0.2; stroke-linecap: square"/>
     </g>
     <g id="line2d_20">
      <g>
       <use xlink:href="#m77055f0385" x="336.910937" y="515.4" style="stroke: #000000; stroke-width: 0.6"/>
      </g>
     </g>
    </g>
    <g id="xtick_11">
     <g id="line2d_21">
      <path d="M 413.910937 561.6 
L 413.910937 7.2 
" clip-path="url(#p92e14ccc95)" style="fill: none; stroke: #808080; stroke-opacity: 0.2; stroke-linecap: square"/>
     </g>
     <g id="line2d_22">
      <g>
       <use xlink:href="#m77055f0385" x="413.910937" y="515.4" style="stroke: #000000; stroke-width: 0.6"/>
      </g>
     </g>
    </g>
    <g id="xtick_12">
     <g id="line2d_23">
      <path d="M 490.910937 561.6 
L 490.910937 7.2 
" clip-path="url(#p92e14ccc95)" style="fill: none; stroke: #808080; stroke-opacity: 0.2; stroke-linecap: square"/>
     </g>
     <g id="line2d_24">
      <g>
       <use xlink:href="#m77055f0385" x="490.910937" y="515.4" style="stroke: #000000; stroke-width: 0.6"/>
      </g>
     </g>
    </g>
    <g id="text_7">
     <!-- Scaling factor -->
     <g transform="translate(229.71875 562.114063) scale(0.2 -0.2)">
      <defs>
       <path id="DejaVuSans-53" d="M 3425 4513 
L 3425 3897 
Q 3066 4069 2747 4153 
Q 2428 4238 2131 4238 
Q 1616 4238 1336 4038 
Q 1056 3838 1056 3469 
Q 1056 3159 1242 3001 
Q 1428 2844 1947 2747 
L 2328 2669 
Q 3034 2534 3370 2195 
Q 3706 1856 3706 1288 
Q 3706 609 3251 259 
Q 2797 -91 1919 -91 
Q 1588 -91 1214 -16 
Q 841 59 441 206 
L 441 856 
Q 825 641 1194 531 
Q 1563 422 1919 422 
Q 2459 422 2753 634 
Q 3047 847 3047 1241 
Q 3047 1584 2836 1778 
Q 2625 1972 2144 2069 
L 1759 2144 
Q 1053 2284 737 2584 
Q 422 2884 422 3419 
Q 422 4038 858 4394 
Q 1294 4750 2059 4750 
Q 2388 4750 2728 4690 
Q 3069 4631 3425 4513 
z
" transform="scale(0.015625)"/>
       <path id="DejaVuSans-63" d="M 3122 3366 
L 3122 2828 
Q 2878 2963 2633 3030 
Q 2388 3097 2138 3097 
Q 1578 3097 1268 2742 
Q 959 2388 959 1747 
Q 959 1106 1268 751 
Q 1578 397 2138 397 
Q 2388 397 2633 464 
Q 2878 531 3122 666 
L 3122 134 
Q 2881 22 2623 -34 
Q 2366 -91 2075 -91 
Q 1284 -91 818 406 
Q 353 903 353 1747 
Q 353 2603 823 3093 
Q 1294 3584 2113 3584 
Q 2378 3584 2631 3529 
Q 2884 3475 3122 3366 
z
" transform="scale(0.015625)"/>
       <path id="DejaVuSans-61" d="M 2194 1759 
Q 1497 1759 1228 1600 
Q 959 1441 959 1056 
Q 959 750 1161 570 
Q 1363 391 1709 391 
Q 2188 391 2477 730 
Q 2766 1069 2766 1631 
L 2766 1759 
L 2194 1759 
z
M 3341 1997 
L 3341 0 
L 2766 0 
L 2766 531 
Q 2569 213 2275 61 
Q 1981 -91 1556 -91 
Q 1019 -91 701 211 
Q 384 513 384 1019 
Q 384 1609 779 1909 
Q 1175 2209 1959 2209 
L 2766 2209 
L 2766 2266 
Q 2766 2663 2505 2880 
Q 2244 3097 1772 3097 
Q 1472 3097 1187 3025 
Q 903 2953 641 2809 
L 641 3341 
Q 956 3463 1253 3523 
Q 1550 3584 1831 3584 
Q 2591 3584 2966 3190 
Q 3341 2797 3341 1997 
z
" transform="scale(0.015625)"/>
       <path id="DejaVuSans-6c" d="M 603 4863 
L 1178 4863 
L 1178 0 
L 603 0 
L 603 4863 
z
" transform="scale(0.015625)"/>
       <path id="DejaVuSans-69" d="M 603 3500 
L 1178 3500 
L 1178 0 
L 603 0 
L 603 3500 
z
M 603 4863 
L 1178 4863 
L 1178 4134 
L 603 4134 
L 603 4863 
z
" transform="scale(0.015625)"/>
       <path id="DejaVuSans-6e" d="M 3513 2113 
L 3513 0 
L 2938 0 
L 2938 2094 
Q 2938 2591 2744 2837 
Q 2550 3084 2163 3084 
Q 1697 3084 1428 2787 
Q 1159 2491 1159 1978 
L 1159 0 
L 581 0 
L 581 3500 
L 1159 3500 
L 1159 2956 
Q 1366 3272 1645 3428 
Q 1925 3584 2291 3584 
Q 2894 3584 3203 3211 
Q 3513 2838 3513 2113 
z
" transform="scale(0.015625)"/>
       <path id="DejaVuSans-67" d="M 2906 1791 
Q 2906 2416 2648 2759 
Q 2391 3103 1925 3103 
Q 1463 3103 1205 2759 
Q 947 2416 947 1791 
Q 947 1169 1205 825 
Q 1463 481 1925 481 
Q 2391 481 2648 825 
Q 2906 1169 2906 1791 
z
M 3481 434 
Q 3481 -459 3084 -895 
Q 2688 -1331 1869 -1331 
Q 1566 -1331 1297 -1286 
Q 1028 -1241 775 -1147 
L 775 -588 
Q 1028 -725 1275 -790 
Q 1522 -856 1778 -856 
Q 2344 -856 2625 -561 
Q 2906 -266 2906 331 
L 2906 616 
Q 2728 306 2450 153 
Q 2172 0 1784 0 
Q 1141 0 747 490 
Q 353 981 353 1791 
Q 353 2603 747 3093 
Q 1141 3584 1784 3584 
Q 2172 3584 2450 3431 
Q 2728 3278 2906 2969 
L 2906 3500 
L 3481 3500 
L 3481 434 
z
" transform="scale(0.015625)"/>
       <path id="DejaVuSans-20" transform="scale(0.015625)"/>
       <path id="DejaVuSans-66" d="M 2375 4863 
L 2375 4384 
L 1825 4384 
Q 1516 4384 1395 4259 
Q 1275 4134 1275 3809 
L 1275 3500 
L 2222 3500 
L 2222 3053 
L 1275 3053 
L 1275 0 
L 697 0 
L 697 3053 
L 147 3053 
L 147 3500 
L 697 3500 
L 697 3744 
Q 697 4328 969 4595 
Q 1241 4863 1831 4863 
L 2375 4863 
z
" transform="scale(0.015625)"/>
       <path id="DejaVuSans-74" d="M 1172 4494 
L 1172 3500 
L 2356 3500 
L 2356 3053 
L 1172 3053 
L 1172 1153 
Q 1172 725 1289 603 
Q 1406 481 1766 481 
L 2356 481 
L 2356 0 
L 1766 0 
Q 1100 0 847 248 
Q 594 497 594 1153 
L 594 3053 
L 172 3053 
L 172 3500 
L 594 3500 
L 594 4494 
L 1172 4494 
z
" transform="scale(0.015625)"/>
       <path id="DejaVuSans-6f" d="M 1959 3097 
Q 1497 3097 1228 2736 
Q 959 2375 959 1747 
Q 959 1119 1226 758 
Q 1494 397 1959 397 
Q 2419 397 2687 759 
Q 2956 1122 2956 1747 
Q 2956 2369 2687 2733 
Q 2419 3097 1959 3097 
z
M 1959 3584 
Q 2709 3584 3137 3096 
Q 3566 2609 3566 1747 
Q 3566 888 3137 398 
Q 2709 -91 1959 -91 
Q 1206 -91 779 398 
Q 353 888 353 1747 
Q 353 2609 779 3096 
Q 1206 3584 1959 3584 
z
" transform="scale(0.015625)"/>
       <path id="DejaVuSans-72" d="M 2631 2963 
Q 2534 3019 2420 3045 
Q 2306 3072 2169 3072 
Q 1681 3072 1420 2755 
Q 1159 2438 1159 1844 
L 1159 0 
L 581 0 
L 581 3500 
L 1159 3500 
L 1159 2956 
Q 1341 3275 1631 3429 
Q 1922 3584 2338 3584 
Q 2397 3584 2469 3576 
Q 2541 3569 2628 3553 
L 2631 2963 
z
" transform="scale(0.015625)"/>
      </defs>
      <use xlink:href="#DejaVuSans-53"/>
      <use xlink:href="#DejaVuSans-63" x="63.476562"/>
      <use xlink:href="#DejaVuSans-61" x="118.457031"/>
      <use xlink:href="#DejaVuSans-6c" x="179.736328"/>
      <use xlink:href="#DejaVuSans-69" x="207.519531"/>
      <use xlink:href="#DejaVuSans-6e" x="235.302734"/>
      <use xlink:href="#DejaVuSans-67" x="298.681641"/>
      <use xlink:href="#DejaVuSans-20" x="362.158203"/>
      <use xlink:href="#DejaVuSans-66" x="393.945312"/>
      <use xlink:href="#DejaVuSans-61" x="429.150391"/>
      <use xlink:href="#DejaVuSans-63" x="490.429688"/>
      <use xlink:href="#DejaVuSans-74" x="545.410156"/>
      <use xlink:href="#DejaVuSans-6f" x="584.619141"/>
      <use xlink:href="#DejaVuSans-72" x="645.800781"/>
     </g>
    </g>
   </g>
   <g id="matplotlib.axis_2">
    <g id="ytick_1">
     <g id="line2d_25">
      <path d="M 21.210938 484.6 
L 575.610937 484.6 
" clip-path="url(#p92e14ccc95)" style="fill: none; stroke: #808080; stroke-opacity: 0.2; stroke-linecap: square"/>
     </g>
     <g id="line2d_26">
      <defs>
       <path id="mbe2f349333" d="M 0 0 
L -3.5 0 
" style="stroke: #000000; stroke-width: 0.8"/>
      </defs>
      <g>
       <use xlink:href="#mbe2f349333" x="67.410937" y="484.6" style="stroke: #000000; stroke-width: 0.8"/>
      </g>
     </g>
     <g id="text_8">
      <g id="patch_11">
       <path d="M 32.50625 497.468359 
L 64.460938 497.468359 
L 64.460938 474.851172 
L 32.50625 474.851172 
z
" style="fill: #ffffff; stroke: #ffffff; stroke-linejoin: miter"/>
      </g>
      <!-- 2.0 -->
      <g transform="translate(36.55625 490.298828) scale(0.15 -0.15)">
       <use xlink:href="#DejaVuSans-32"/>
       <use xlink:href="#DejaVuSans-2e" x="63.623047"/>
       <use xlink:href="#DejaVuSans-30" x="95.410156"/>
      </g>
     </g>
    </g>
    <g id="ytick_2">
     <g id="line2d_27">
      <path d="M 21.210938 423 
L 575.610937 423 
" clip-path="url(#p92e14ccc95)" style="fill: none; stroke: #808080; stroke-opacity: 0.2; stroke-linecap: square"/>
     </g>
     <g id="line2d_28">
      <g>
       <use xlink:href="#mbe2f349333" x="67.410937" y="423" style="stroke: #000000; stroke-width: 0.8"/>
      </g>
     </g>
     <g id="text_9">
      <g id="patch_12">
       <path d="M 32.50625 435.868359 
L 64.460938 435.868359 
L 64.460938 413.251172 
L 32.50625 413.251172 
z
" style="fill: #ffffff; stroke: #ffffff; stroke-linejoin: miter"/>
      </g>
      <!-- 3.0 -->
      <g transform="translate(36.55625 428.698828) scale(0.15 -0.15)">
       <use xlink:href="#DejaVuSans-33"/>
       <use xlink:href="#DejaVuSans-2e" x="63.623047"/>
       <use xlink:href="#DejaVuSans-30" x="95.410156"/>
      </g>
     </g>
    </g>
    <g id="ytick_3">
     <g id="line2d_29">
      <path d="M 21.210938 361.4 
L 575.610937 361.4 
" clip-path="url(#p92e14ccc95)" style="fill: none; stroke: #808080; stroke-opacity: 0.2; stroke-linecap: square"/>
     </g>
     <g id="line2d_30">
      <g>
       <use xlink:href="#mbe2f349333" x="67.410937" y="361.4" style="stroke: #000000; stroke-width: 0.8"/>
      </g>
     </g>
     <g id="text_10">
      <g id="patch_13">
       <path d="M 32.50625 374.268359 
L 64.460938 374.268359 
L 64.460938 351.651172 
L 32.50625 351.651172 
z
" style="fill: #ffffff; stroke: #ffffff; stroke-linejoin: miter"/>
      </g>
      <!-- 4.0 -->
      <g transform="translate(36.55625 367.098828) scale(0.15 -0.15)">
       <defs>
        <path id="DejaVuSans-34" d="M 2419 4116 
L 825 1625 
L 2419 1625 
L 2419 4116 
z
M 2253 4666 
L 3047 4666 
L 3047 1625 
L 3713 1625 
L 3713 1100 
L 3047 1100 
L 3047 0 
L 2419 0 
L 2419 1100 
L 313 1100 
L 313 1709 
L 2253 4666 
z
" transform="scale(0.015625)"/>
       </defs>
       <use xlink:href="#DejaVuSans-34"/>
       <use xlink:href="#DejaVuSans-2e" x="63.623047"/>
       <use xlink:href="#DejaVuSans-30" x="95.410156"/>
      </g>
     </g>
    </g>
    <g id="ytick_4">
     <g id="line2d_31">
      <path d="M 21.210938 299.8 
L 575.610937 299.8 
" clip-path="url(#p92e14ccc95)" style="fill: none; stroke: #808080; stroke-opacity: 0.2; stroke-linecap: square"/>
     </g>
     <g id="line2d_32">
      <g>
       <use xlink:href="#mbe2f349333" x="67.410937" y="299.8" style="stroke: #000000; stroke-width: 0.8"/>
      </g>
     </g>
     <g id="text_11">
      <g id="patch_14">
       <path d="M 32.50625 312.668359 
L 64.460938 312.668359 
L 64.460938 290.051172 
L 32.50625 290.051172 
z
" style="fill: #ffffff; stroke: #ffffff; stroke-linejoin: miter"/>
      </g>
      <!-- 5.0 -->
      <g transform="translate(36.55625 305.498828) scale(0.15 -0.15)">
       <use xlink:href="#DejaVuSans-35"/>
       <use xlink:href="#DejaVuSans-2e" x="63.623047"/>
       <use xlink:href="#DejaVuSans-30" x="95.410156"/>
      </g>
     </g>
    </g>
    <g id="ytick_5">
     <g id="line2d_33">
      <path d="M 21.210938 238.2 
L 575.610937 238.2 
" clip-path="url(#p92e14ccc95)" style="fill: none; stroke: #808080; stroke-opacity: 0.2; stroke-linecap: square"/>
     </g>
     <g id="line2d_34">
      <g>
       <use xlink:href="#mbe2f349333" x="67.410937" y="238.2" style="stroke: #000000; stroke-width: 0.8"/>
      </g>
     </g>
     <g id="text_12">
      <g id="patch_15">
       <path d="M 32.50625 251.068359 
L 64.460938 251.068359 
L 64.460938 228.451172 
L 32.50625 228.451172 
z
" style="fill: #ffffff; stroke: #ffffff; stroke-linejoin: miter"/>
      </g>
      <!-- 6.0 -->
      <g transform="translate(36.55625 243.898828) scale(0.15 -0.15)">
       <defs>
        <path id="DejaVuSans-36" d="M 2113 2584 
Q 1688 2584 1439 2293 
Q 1191 2003 1191 1497 
Q 1191 994 1439 701 
Q 1688 409 2113 409 
Q 2538 409 2786 701 
Q 3034 994 3034 1497 
Q 3034 2003 2786 2293 
Q 2538 2584 2113 2584 
z
M 3366 4563 
L 3366 3988 
Q 3128 4100 2886 4159 
Q 2644 4219 2406 4219 
Q 1781 4219 1451 3797 
Q 1122 3375 1075 2522 
Q 1259 2794 1537 2939 
Q 1816 3084 2150 3084 
Q 2853 3084 3261 2657 
Q 3669 2231 3669 1497 
Q 3669 778 3244 343 
Q 2819 -91 2113 -91 
Q 1303 -91 875 529 
Q 447 1150 447 2328 
Q 447 3434 972 4092 
Q 1497 4750 2381 4750 
Q 2619 4750 2861 4703 
Q 3103 4656 3366 4563 
z
" transform="scale(0.015625)"/>
       </defs>
       <use xlink:href="#DejaVuSans-36"/>
       <use xlink:href="#DejaVuSans-2e" x="63.623047"/>
       <use xlink:href="#DejaVuSans-30" x="95.410156"/>
      </g>
     </g>
    </g>
    <g id="ytick_6">
     <g id="line2d_35">
      <path d="M 21.210938 176.6 
L 575.610937 176.6 
" clip-path="url(#p92e14ccc95)" style="fill: none; stroke: #808080; stroke-opacity: 0.2; stroke-linecap: square"/>
     </g>
     <g id="line2d_36">
      <g>
       <use xlink:href="#mbe2f349333" x="67.410937" y="176.6" style="stroke: #000000; stroke-width: 0.8"/>
      </g>
     </g>
     <g id="text_13">
      <g id="patch_16">
       <path d="M 32.50625 189.468359 
L 64.460938 189.468359 
L 64.460938 166.851172 
L 32.50625 166.851172 
z
" style="fill: #ffffff; stroke: #ffffff; stroke-linejoin: miter"/>
      </g>
      <!-- 7.0 -->
      <g transform="translate(36.55625 182.298828) scale(0.15 -0.15)">
       <defs>
        <path id="DejaVuSans-37" d="M 525 4666 
L 3525 4666 
L 3525 4397 
L 1831 0 
L 1172 0 
L 2766 4134 
L 525 4134 
L 525 4666 
z
" transform="scale(0.015625)"/>
       </defs>
       <use xlink:href="#DejaVuSans-37"/>
       <use xlink:href="#DejaVuSans-2e" x="63.623047"/>
       <use xlink:href="#DejaVuSans-30" x="95.410156"/>
      </g>
     </g>
    </g>
    <g id="ytick_7">
     <g id="line2d_37">
      <path d="M 21.210938 115 
L 575.610937 115 
" clip-path="url(#p92e14ccc95)" style="fill: none; stroke: #808080; stroke-opacity: 0.2; stroke-linecap: square"/>
     </g>
     <g id="line2d_38">
      <g>
       <use xlink:href="#mbe2f349333" x="67.410937" y="115" style="stroke: #000000; stroke-width: 0.8"/>
      </g>
     </g>
     <g id="text_14">
      <g id="patch_17">
       <path d="M 32.50625 127.868359 
L 64.460938 127.868359 
L 64.460938 105.251172 
L 32.50625 105.251172 
z
" style="fill: #ffffff; stroke: #ffffff; stroke-linejoin: miter"/>
      </g>
      <!-- 8.0 -->
      <g transform="translate(36.55625 120.698828) scale(0.15 -0.15)">
       <defs>
        <path id="DejaVuSans-38" d="M 2034 2216 
Q 1584 2216 1326 1975 
Q 1069 1734 1069 1313 
Q 1069 891 1326 650 
Q 1584 409 2034 409 
Q 2484 409 2743 651 
Q 3003 894 3003 1313 
Q 3003 1734 2745 1975 
Q 2488 2216 2034 2216 
z
M 1403 2484 
Q 997 2584 770 2862 
Q 544 3141 544 3541 
Q 544 4100 942 4425 
Q 1341 4750 2034 4750 
Q 2731 4750 3128 4425 
Q 3525 4100 3525 3541 
Q 3525 3141 3298 2862 
Q 3072 2584 2669 2484 
Q 3125 2378 3379 2068 
Q 3634 1759 3634 1313 
Q 3634 634 3220 271 
Q 2806 -91 2034 -91 
Q 1263 -91 848 271 
Q 434 634 434 1313 
Q 434 1759 690 2068 
Q 947 2378 1403 2484 
z
M 1172 3481 
Q 1172 3119 1398 2916 
Q 1625 2713 2034 2713 
Q 2441 2713 2670 2916 
Q 2900 3119 2900 3481 
Q 2900 3844 2670 4047 
Q 2441 4250 2034 4250 
Q 1625 4250 1398 4047 
Q 1172 3844 1172 3481 
z
" transform="scale(0.015625)"/>
       </defs>
       <use xlink:href="#DejaVuSans-38"/>
       <use xlink:href="#DejaVuSans-2e" x="63.623047"/>
       <use xlink:href="#DejaVuSans-30" x="95.410156"/>
      </g>
     </g>
    </g>
    <g id="ytick_8">
     <g id="line2d_39">
      <path d="M 21.210938 53.4 
L 575.610937 53.4 
" clip-path="url(#p92e14ccc95)" style="fill: none; stroke: #808080; stroke-opacity: 0.2; stroke-linecap: square"/>
     </g>
     <g id="line2d_40">
      <g>
       <use xlink:href="#mbe2f349333" x="67.410937" y="53.4" style="stroke: #000000; stroke-width: 0.8"/>
      </g>
     </g>
     <g id="text_15">
      <g id="patch_18">
       <path d="M 32.50625 66.268359 
L 64.460938 66.268359 
L 64.460938 43.651172 
L 32.50625 43.651172 
z
" style="fill: #ffffff; stroke: #ffffff; stroke-linejoin: miter"/>
      </g>
      <!-- 9.0 -->
      <g transform="translate(36.55625 59.098828) scale(0.15 -0.15)">
       <defs>
        <path id="DejaVuSans-39" d="M 703 97 
L 703 672 
Q 941 559 1184 500 
Q 1428 441 1663 441 
Q 2288 441 2617 861 
Q 2947 1281 2994 2138 
Q 2813 1869 2534 1725 
Q 2256 1581 1919 1581 
Q 1219 1581 811 2004 
Q 403 2428 403 3163 
Q 403 3881 828 4315 
Q 1253 4750 1959 4750 
Q 2769 4750 3195 4129 
Q 3622 3509 3622 2328 
Q 3622 1225 3098 567 
Q 2575 -91 1691 -91 
Q 1453 -91 1209 -44 
Q 966 3 703 97 
z
M 1959 2075 
Q 2384 2075 2632 2365 
Q 2881 2656 2881 3163 
Q 2881 3666 2632 3958 
Q 2384 4250 1959 4250 
Q 1534 4250 1286 3958 
Q 1038 3666 1038 3163 
Q 1038 2656 1286 2365 
Q 1534 2075 1959 2075 
z
" transform="scale(0.015625)"/>
       </defs>
       <use xlink:href="#DejaVuSans-39"/>
       <use xlink:href="#DejaVuSans-2e" x="63.623047"/>
       <use xlink:href="#DejaVuSans-30" x="95.410156"/>
      </g>
     </g>
    </g>
    <g id="ytick_9">
     <g id="line2d_41">
      <path d="M 21.210938 453.8 
L 575.610937 453.8 
" clip-path="url(#p92e14ccc95)" style="fill: none; stroke: #808080; stroke-opacity: 0.2; stroke-linecap: square"/>
     </g>
     <g id="line2d_42">
      <defs>
       <path id="m49ba1adaae" d="M 0 0 
L -2 0 
" style="stroke: #000000; stroke-width: 0.6"/>
      </defs>
      <g>
       <use xlink:href="#m49ba1adaae" x="67.410937" y="453.8" style="stroke: #000000; stroke-width: 0.6"/>
      </g>
     </g>
    </g>
    <g id="ytick_10">
     <g id="line2d_43">
      <path d="M 21.210938 392.2 
L 575.610937 392.2 
" clip-path="url(#p92e14ccc95)" style="fill: none; stroke: #808080; stroke-opacity: 0.2; stroke-linecap: square"/>
     </g>
     <g id="line2d_44">
      <g>
       <use xlink:href="#m49ba1adaae" x="67.410937" y="392.2" style="stroke: #000000; stroke-width: 0.6"/>
      </g>
     </g>
    </g>
    <g id="ytick_11">
     <g id="line2d_45">
      <path d="M 21.210938 330.6 
L 575.610937 330.6 
" clip-path="url(#p92e14ccc95)" style="fill: none; stroke: #808080; stroke-opacity: 0.2; stroke-linecap: square"/>
     </g>
     <g id="line2d_46">
      <g>
       <use xlink:href="#m49ba1adaae" x="67.410937" y="330.6" style="stroke: #000000; stroke-width: 0.6"/>
      </g>
     </g>
    </g>
    <g id="ytick_12">
     <g id="line2d_47">
      <path d="M 21.210938 269 
L 575.610937 269 
" clip-path="url(#p92e14ccc95)" style="fill: none; stroke: #808080; stroke-opacity: 0.2; stroke-linecap: square"/>
     </g>
     <g id="line2d_48">
      <g>
       <use xlink:href="#m49ba1adaae" x="67.410937" y="269" style="stroke: #000000; stroke-width: 0.6"/>
      </g>
     </g>
    </g>
    <g id="ytick_13">
     <g id="line2d_49">
      <path d="M 21.210938 207.4 
L 575.610937 207.4 
" clip-path="url(#p92e14ccc95)" style="fill: none; stroke: #808080; stroke-opacity: 0.2; stroke-linecap: square"/>
     </g>
     <g id="line2d_50">
      <g>
       <use xlink:href="#m49ba1adaae" x="67.410937" y="207.4" style="stroke: #000000; stroke-width: 0.6"/>
      </g>
     </g>
    </g>
    <g id="ytick_14">
     <g id="line2d_51">
      <path d="M 21.210938 145.8 
L 575.610937 145.8 
" clip-path="url(#p92e14ccc95)" style="fill: none; stroke: #808080; stroke-opacity: 0.2; stroke-linecap: square"/>
     </g>
     <g id="line2d_52">
      <g>
       <use xlink:href="#m49ba1adaae" x="67.410937" y="145.8" style="stroke: #000000; stroke-width: 0.6"/>
      </g>
     </g>
    </g>
    <g id="ytick_15">
     <g id="line2d_53">
      <path d="M 21.210938 84.2 
L 575.610937 84.2 
" clip-path="url(#p92e14ccc95)" style="fill: none; stroke: #808080; stroke-opacity: 0.2; stroke-linecap: square"/>
     </g>
     <g id="line2d_54">
      <g>
       <use xlink:href="#m49ba1adaae" x="67.410937" y="84.2" style="stroke: #000000; stroke-width: 0.6"/>
      </g>
     </g>
    </g>
    <g id="text_16">
     <!-- Sym. Dirichlet energy -->
     <g transform="translate(22.396875 392.84375) rotate(-90) scale(0.2 -0.2)">
      <defs>
       <path id="DejaVuSans-79" d="M 2059 -325 
Q 1816 -950 1584 -1140 
Q 1353 -1331 966 -1331 
L 506 -1331 
L 506 -850 
L 844 -850 
Q 1081 -850 1212 -737 
Q 1344 -625 1503 -206 
L 1606 56 
L 191 3500 
L 800 3500 
L 1894 763 
L 2988 3500 
L 3597 3500 
L 2059 -325 
z
" transform="scale(0.015625)"/>
       <path id="DejaVuSans-6d" d="M 3328 2828 
Q 3544 3216 3844 3400 
Q 4144 3584 4550 3584 
Q 5097 3584 5394 3201 
Q 5691 2819 5691 2113 
L 5691 0 
L 5113 0 
L 5113 2094 
Q 5113 2597 4934 2840 
Q 4756 3084 4391 3084 
Q 3944 3084 3684 2787 
Q 3425 2491 3425 1978 
L 3425 0 
L 2847 0 
L 2847 2094 
Q 2847 2600 2669 2842 
Q 2491 3084 2119 3084 
Q 1678 3084 1418 2786 
Q 1159 2488 1159 1978 
L 1159 0 
L 581 0 
L 581 3500 
L 1159 3500 
L 1159 2956 
Q 1356 3278 1631 3431 
Q 1906 3584 2284 3584 
Q 2666 3584 2933 3390 
Q 3200 3197 3328 2828 
z
" transform="scale(0.015625)"/>
       <path id="DejaVuSans-44" d="M 1259 4147 
L 1259 519 
L 2022 519 
Q 2988 519 3436 956 
Q 3884 1394 3884 2338 
Q 3884 3275 3436 3711 
Q 2988 4147 2022 4147 
L 1259 4147 
z
M 628 4666 
L 1925 4666 
Q 3281 4666 3915 4102 
Q 4550 3538 4550 2338 
Q 4550 1131 3912 565 
Q 3275 0 1925 0 
L 628 0 
L 628 4666 
z
" transform="scale(0.015625)"/>
       <path id="DejaVuSans-68" d="M 3513 2113 
L 3513 0 
L 2938 0 
L 2938 2094 
Q 2938 2591 2744 2837 
Q 2550 3084 2163 3084 
Q 1697 3084 1428 2787 
Q 1159 2491 1159 1978 
L 1159 0 
L 581 0 
L 581 4863 
L 1159 4863 
L 1159 2956 
Q 1366 3272 1645 3428 
Q 1925 3584 2291 3584 
Q 2894 3584 3203 3211 
Q 3513 2838 3513 2113 
z
" transform="scale(0.015625)"/>
       <path id="DejaVuSans-65" d="M 3597 1894 
L 3597 1613 
L 953 1613 
Q 991 1019 1311 708 
Q 1631 397 2203 397 
Q 2534 397 2845 478 
Q 3156 559 3463 722 
L 3463 178 
Q 3153 47 2828 -22 
Q 2503 -91 2169 -91 
Q 1331 -91 842 396 
Q 353 884 353 1716 
Q 353 2575 817 3079 
Q 1281 3584 2069 3584 
Q 2775 3584 3186 3129 
Q 3597 2675 3597 1894 
z
M 3022 2063 
Q 3016 2534 2758 2815 
Q 2500 3097 2075 3097 
Q 1594 3097 1305 2825 
Q 1016 2553 972 2059 
L 3022 2063 
z
" transform="scale(0.015625)"/>
      </defs>
      <use xlink:href="#DejaVuSans-53"/>
      <use xlink:href="#DejaVuSans-79" x="63.476562"/>
      <use xlink:href="#DejaVuSans-6d" x="122.65625"/>
      <use xlink:href="#DejaVuSans-2e" x="220.068359"/>
      <use xlink:href="#DejaVuSans-20" x="251.855469"/>
      <use xlink:href="#DejaVuSans-44" x="283.642578"/>
      <use xlink:href="#DejaVuSans-69" x="360.644531"/>
      <use xlink:href="#DejaVuSans-72" x="388.427734"/>
      <use xlink:href="#DejaVuSans-69" x="429.541016"/>
      <use xlink:href="#DejaVuSans-63" x="457.324219"/>
      <use xlink:href="#DejaVuSans-68" x="512.304688"/>
      <use xlink:href="#DejaVuSans-6c" x="575.683594"/>
      <use xlink:href="#DejaVuSans-65" x="603.466797"/>
      <use xlink:href="#DejaVuSans-74" x="664.990234"/>
      <use xlink:href="#DejaVuSans-20" x="704.199219"/>
      <use xlink:href="#DejaVuSans-65" x="735.986328"/>
      <use xlink:href="#DejaVuSans-6e" x="797.509766"/>
      <use xlink:href="#DejaVuSans-65" x="860.888672"/>
      <use xlink:href="#DejaVuSans-72" x="922.412109"/>
      <use xlink:href="#DejaVuSans-67" x="961.775391"/>
      <use xlink:href="#DejaVuSans-79" x="1025.251953"/>
     </g>
    </g>
   </g>
   <g id="line2d_55">
    <path d="M -1 283.37166 
L -0.349062 277.692422 
L 1.190938 263.257104 
L 2.730938 247.727411 
L 4.270938 230.996497 
L 5.810938 212.944 
L 7.350938 193.433927 
L 8.890938 172.312162 
L 10.430938 149.403483 
L 11.970938 124.507998 
L 13.510938 97.396857 
L 15.050938 67.807068 
L 16.590938 35.435194 
L 18.167602 -1 
M 116.654273 -1 
L 116.690938 -0.07034 
L 118.230938 35.435194 
L 119.770938 67.807068 
L 121.310938 97.396857 
L 122.850938 124.507998 
L 124.390938 149.403483 
L 125.930938 172.312162 
L 127.470938 193.433927 
L 129.010938 212.944 
L 130.550938 230.996497 
L 133.630938 263.257104 
L 136.710938 291.128469 
L 139.790938 315.333348 
L 142.870938 336.450073 
L 145.950938 354.945852 
L 149.030938 371.201437 
L 152.110938 385.529636 
L 155.190938 398.189361 
L 158.270938 409.396397 
L 161.350938 419.331744 
L 164.430938 428.148138 
L 167.510938 435.975183 
L 170.590938 442.923434 
L 173.670938 449.087657 
L 176.750938 454.549463 
L 179.830938 459.37944 
L 182.910938 463.638889 
L 185.990938 467.381256 
L 189.070938 470.653309 
L 192.150938 473.496113 
L 195.230938 475.945847 
L 198.310938 478.034484 
L 201.390938 479.790365 
L 204.470938 481.238681 
L 207.550938 482.401889 
L 210.630938 483.300053 
L 213.710938 483.951152 
L 216.790938 484.371328 
L 219.870938 484.57511 
L 222.950938 484.575603 
L 226.030938 484.384652 
L 229.110938 484.012984 
L 232.190938 483.470334 
L 235.270938 482.765552 
L 239.890938 481.421817 
L 244.510938 479.75555 
L 249.130938 477.787999 
L 253.750938 475.537811 
L 258.370938 473.021405 
L 262.990938 470.253284 
L 267.610938 467.246296 
L 272.230938 464.011858 
L 276.850938 460.560142 
L 283.010938 455.635429 
L 289.170938 450.35945 
L 295.330938 444.748643 
L 301.490938 438.81731 
L 307.650938 432.577945 
L 313.810938 426.0415 
L 319.970938 419.217606 
L 326.130938 412.114763 
L 333.830938 402.855316 
L 341.530938 393.18457 
L 349.230938 383.11366 
L 356.930938 372.652259 
L 364.630938 361.808803 
L 372.330938 350.590678 
L 380.030938 339.004369 
L 387.730938 327.055594 
L 395.430938 314.749407 
L 404.670938 299.516471 
L 413.910938 283.782099 
L 423.150938 267.552228 
L 432.390938 250.832057 
L 441.630938 233.626146 
L 450.870938 215.938516 
L 460.110938 197.77272 
L 469.350938 179.131907 
L 478.590938 160.018876 
L 487.830938 140.436121 
L 497.070938 120.385873 
L 506.310938 99.870128 
L 517.090938 75.34914 
L 527.870938 50.199537 
L 538.650938 24.423574 
L 549.0361 -1 
L 549.0361 -1 
" clip-path="url(#p92e14ccc95)" style="fill: none; stroke: #1f77b4; stroke-width: 2; stroke-linecap: square"/>
   </g>
  </g>
 </g>
 <defs>
  <clipPath id="p92e14ccc95">
   <rect x="21.210938" y="7.2" width="554.4" height="554.4"/>
  </clipPath>
 </defs>
</svg>
