<?xml version="1.0" encoding="utf-8" standalone="no"?>
<!DOCTYPE svg PUBLIC "-//W3C//DTD SVG 1.1//EN"
  "http://www.w3.org/Graphics/SVG/1.1/DTD/svg11.dtd">
<svg xmlns:xlink="http://www.w3.org/1999/xlink" width="580.778138pt" height="571.440638pt" viewBox="0 0 580.778138 571.440638" xmlns="http://www.w3.org/2000/svg" version="1.1">
 <metadata>
  <rdf:RDF xmlns:dc="http://purl.org/dc/elements/1.1/" xmlns:cc="http://creativecommons.org/ns#" xmlns:rdf="http://www.w3.org/1999/02/22-rdf-syntax-ns#">
   <cc:Work>
    <dc:type rdf:resource="http://purl.org/dc/dcmitype/StillImage"/>
    <dc:date>2024-08-24T10:31:49.758551</dc:date>
    <dc:format>image/svg+xml</dc:format>
    <dc:creator>
     <cc:Agent>
      <dc:title>Matplotlib v3.7.1, https://matplotlib.org/</dc:title>
     </cc:Agent>
    </dc:creator>
   </cc:Work>
  </rdf:RDF>
 </metadata>
 <defs>
  <style type="text/css">*{stroke-linejoin: round; stroke-linecap: butt}</style>
 </defs>
 <g id="figure_1">
  <g id="patch_1">
   <path d="M 0 571.440638 
L 580.778138 571.440638 
L 580.778138 0 
L 0 0 
z
" style="fill: #ffffff"/>
  </g>
  <g id="axes_1">
   <g id="patch_2">
    <path d="M 21.395737 559.3824 
L 573.578138 559.3824 
L 573.578138 7.2 
L 21.395737 7.2 
z
" style="fill: #ffffff"/>
   </g>
   <g id="patch_3">
    <path d="M 67.410937 7.2 
L 73.162837 18.7038 
L 67.433945 15.25266 
L 67.433945 559.3824 
L 67.38793 559.3824 
L 67.38793 15.25266 
L 61.659037 18.7038 
z
" style="stroke: #000000; stroke-width: 0.3; stroke-linejoin: miter"/>
   </g>
   <g id="patch_4">
    <path d="M 573.578138 513.3672 
L 562.074338 519.1191 
L 565.525478 513.390208 
L 21.395737 513.390208 
L 21.395737 513.344192 
L 565.525478 513.344192 
L 562.074338 507.6153 
z
" style="stroke: #000000; stroke-width: 0.3; stroke-linejoin: miter"/>
   </g>
   <g id="matplotlib.axis_1">
    <g id="xtick_1">
     <g id="line2d_1">
      <path d="M 144.102937 559.3824 
L 144.102937 7.2 
" clip-path="url(#pcf8eaa8ad5)" style="fill: none; stroke: #808080; stroke-opacity: 0.2; stroke-linecap: square"/>
     </g>
     <g id="line2d_2">
      <defs>
       <path id="md697c74bee" d="M 0 0 
L 0 3.5 
" style="stroke: #000000; stroke-width: 0.8"/>
      </defs>
      <g>
       <use xlink:href="#md697c74bee" x="144.102937" y="513.3672" style="stroke: #000000; stroke-width: 0.8"/>
      </g>
     </g>
     <g id="text_1">
      <g id="patch_5">
       <path d="M 128.125594 538.934388 
L 160.080281 538.934388 
L 160.080281 516.3172 
L 128.125594 516.3172 
z
" style="fill: #ffffff; stroke: #ffffff; stroke-linejoin: miter"/>
      </g>
      <!-- 0.5 -->
      <g transform="translate(132.175594 531.764856) scale(0.15 -0.15)">
       <defs>
        <path id="DejaVuSans-30" d="M 2034 4250 
Q 1547 4250 1301 3770 
Q 1056 3291 1056 2328 
Q 1056 1369 1301 889 
Q 1547 409 2034 409 
Q 2525 409 2770 889 
Q 3016 1369 3016 2328 
Q 3016 3291 2770 3770 
Q 2525 4250 2034 4250 
z
M 2034 4750 
Q 2819 4750 3233 4129 
Q 3647 3509 3647 2328 
Q 3647 1150 3233 529 
Q 2819 -91 2034 -91 
Q 1250 -91 836 529 
Q 422 1150 422 2328 
Q 422 3509 836 4129 
Q 1250 4750 2034 4750 
z
" transform="scale(0.015625)"/>
        <path id="DejaVuSans-2e" d="M 684 794 
L 1344 794 
L 1344 0 
L 684 0 
L 684 794 
z
" transform="scale(0.015625)"/>
        <path id="DejaVuSans-35" d="M 691 4666 
L 3169 4666 
L 3169 4134 
L 1269 4134 
L 1269 2991 
Q 1406 3038 1543 3061 
Q 1681 3084 1819 3084 
Q 2600 3084 3056 2656 
Q 3513 2228 3513 1497 
Q 3513 744 3044 326 
Q 2575 -91 1722 -91 
Q 1428 -91 1123 -41 
Q 819 9 494 109 
L 494 744 
Q 775 591 1075 516 
Q 1375 441 1709 441 
Q 2250 441 2565 725 
Q 2881 1009 2881 1497 
Q 2881 1984 2565 2268 
Q 2250 2553 1709 2553 
Q 1456 2553 1204 2497 
Q 953 2441 691 2322 
L 691 4666 
z
" transform="scale(0.015625)"/>
       </defs>
       <use xlink:href="#DejaVuSans-30"/>
       <use xlink:href="#DejaVuSans-2e" x="63.623047"/>
       <use xlink:href="#DejaVuSans-35" x="95.410156"/>
      </g>
     </g>
    </g>
    <g id="xtick_2">
     <g id="line2d_3">
      <path d="M 220.794938 559.3824 
L 220.794938 7.2 
" clip-path="url(#pcf8eaa8ad5)" style="fill: none; stroke: #808080; stroke-opacity: 0.2; stroke-linecap: square"/>
     </g>
     <g id="line2d_4">
      <g>
       <use xlink:href="#md697c74bee" x="220.794938" y="513.3672" style="stroke: #000000; stroke-width: 0.8"/>
      </g>
     </g>
     <g id="text_2">
      <g id="patch_6">
       <path d="M 204.817594 538.934388 
L 236.772281 538.934388 
L 236.772281 516.3172 
L 204.817594 516.3172 
z
" style="fill: #ffffff; stroke: #ffffff; stroke-linejoin: miter"/>
      </g>
      <!-- 1.0 -->
      <g transform="translate(208.867594 531.764856) scale(0.15 -0.15)">
       <defs>
        <path id="DejaVuSans-31" d="M 794 531 
L 1825 531 
L 1825 4091 
L 703 3866 
L 703 4441 
L 1819 4666 
L 2450 4666 
L 2450 531 
L 3481 531 
L 3481 0 
L 794 0 
L 794 531 
z
" transform="scale(0.015625)"/>
       </defs>
       <use xlink:href="#DejaVuSans-31"/>
       <use xlink:href="#DejaVuSans-2e" x="63.623047"/>
       <use xlink:href="#DejaVuSans-30" x="95.410156"/>
      </g>
     </g>
    </g>
    <g id="xtick_3">
     <g id="line2d_5">
      <path d="M 297.486938 559.3824 
L 297.486938 7.2 
" clip-path="url(#pcf8eaa8ad5)" style="fill: none; stroke: #808080; stroke-opacity: 0.2; stroke-linecap: square"/>
     </g>
     <g id="line2d_6">
      <g>
       <use xlink:href="#md697c74bee" x="297.486938" y="513.3672" style="stroke: #000000; stroke-width: 0.8"/>
      </g>
     </g>
     <g id="text_3">
      <g id="patch_7">
       <path d="M 281.509594 538.934388 
L 313.464281 538.934388 
L 313.464281 516.3172 
L 281.509594 516.3172 
z
" style="fill: #ffffff; stroke: #ffffff; stroke-linejoin: miter"/>
      </g>
      <!-- 1.5 -->
      <g transform="translate(285.559594 531.764856) scale(0.15 -0.15)">
       <use xlink:href="#DejaVuSans-31"/>
       <use xlink:href="#DejaVuSans-2e" x="63.623047"/>
       <use xlink:href="#DejaVuSans-35" x="95.410156"/>
      </g>
     </g>
    </g>
    <g id="xtick_4">
     <g id="line2d_7">
      <path d="M 374.178938 559.3824 
L 374.178938 7.2 
" clip-path="url(#pcf8eaa8ad5)" style="fill: none; stroke: #808080; stroke-opacity: 0.2; stroke-linecap: square"/>
     </g>
     <g id="line2d_8">
      <g>
       <use xlink:href="#md697c74bee" x="374.178938" y="513.3672" style="stroke: #000000; stroke-width: 0.8"/>
      </g>
     </g>
     <g id="text_4">
      <g id="patch_8">
       <path d="M 358.201594 538.934388 
L 390.156281 538.934388 
L 390.156281 516.3172 
L 358.201594 516.3172 
z
" style="fill: #ffffff; stroke: #ffffff; stroke-linejoin: miter"/>
      </g>
      <!-- 2.0 -->
      <g transform="translate(362.251594 531.764856) scale(0.15 -0.15)">
       <defs>
        <path id="DejaVuSans-32" d="M 1228 531 
L 3431 531 
L 3431 0 
L 469 0 
L 469 531 
Q 828 903 1448 1529 
Q 2069 2156 2228 2338 
Q 2531 2678 2651 2914 
Q 2772 3150 2772 3378 
Q 2772 3750 2511 3984 
Q 2250 4219 1831 4219 
Q 1534 4219 1204 4116 
Q 875 4013 500 3803 
L 500 4441 
Q 881 4594 1212 4672 
Q 1544 4750 1819 4750 
Q 2544 4750 2975 4387 
Q 3406 4025 3406 3419 
Q 3406 3131 3298 2873 
Q 3191 2616 2906 2266 
Q 2828 2175 2409 1742 
Q 1991 1309 1228 531 
z
" transform="scale(0.015625)"/>
       </defs>
       <use xlink:href="#DejaVuSans-32"/>
       <use xlink:href="#DejaVuSans-2e" x="63.623047"/>
       <use xlink:href="#DejaVuSans-30" x="95.410156"/>
      </g>
     </g>
    </g>
    <g id="xtick_5">
     <g id="line2d_9">
      <path d="M 450.870938 559.3824 
L 450.870938 7.2 
" clip-path="url(#pcf8eaa8ad5)" style="fill: none; stroke: #808080; stroke-opacity: 0.2; stroke-linecap: square"/>
     </g>
     <g id="line2d_10">
      <g>
       <use xlink:href="#md697c74bee" x="450.870938" y="513.3672" style="stroke: #000000; stroke-width: 0.8"/>
      </g>
     </g>
     <g id="text_5">
      <g id="patch_9">
       <path d="M 434.893594 538.934388 
L 466.848281 538.934388 
L 466.848281 516.3172 
L 434.893594 516.3172 
z
" style="fill: #ffffff; stroke: #ffffff; stroke-linejoin: miter"/>
      </g>
      <!-- 2.5 -->
      <g transform="translate(438.943594 531.764856) scale(0.15 -0.15)">
       <use xlink:href="#DejaVuSans-32"/>
       <use xlink:href="#DejaVuSans-2e" x="63.623047"/>
       <use xlink:href="#DejaVuSans-35" x="95.410156"/>
      </g>
     </g>
    </g>
    <g id="xtick_6">
     <g id="line2d_11">
      <path d="M 527.562938 559.3824 
L 527.562938 7.2 
" clip-path="url(#pcf8eaa8ad5)" style="fill: none; stroke: #808080; stroke-opacity: 0.2; stroke-linecap: square"/>
     </g>
     <g id="line2d_12">
      <g>
       <use xlink:href="#md697c74bee" x="527.562938" y="513.3672" style="stroke: #000000; stroke-width: 0.8"/>
      </g>
     </g>
     <g id="text_6">
      <g id="patch_10">
       <path d="M 511.585594 538.934388 
L 543.540281 538.934388 
L 543.540281 516.3172 
L 511.585594 516.3172 
z
" style="fill: #ffffff; stroke: #ffffff; stroke-linejoin: miter"/>
      </g>
      <!-- 3.0 -->
      <g transform="translate(515.635594 531.764856) scale(0.15 -0.15)">
       <defs>
        <path id="DejaVuSans-33" d="M 2597 2516 
Q 3050 2419 3304 2112 
Q 3559 1806 3559 1356 
Q 3559 666 3084 287 
Q 2609 -91 1734 -91 
Q 1441 -91 1130 -33 
Q 819 25 488 141 
L 488 750 
Q 750 597 1062 519 
Q 1375 441 1716 441 
Q 2309 441 2620 675 
Q 2931 909 2931 1356 
Q 2931 1769 2642 2001 
Q 2353 2234 1838 2234 
L 1294 2234 
L 1294 2753 
L 1863 2753 
Q 2328 2753 2575 2939 
Q 2822 3125 2822 3475 
Q 2822 3834 2567 4026 
Q 2313 4219 1838 4219 
Q 1578 4219 1281 4162 
Q 984 4106 628 3988 
L 628 4550 
Q 988 4650 1302 4700 
Q 1616 4750 1894 4750 
Q 2613 4750 3031 4423 
Q 3450 4097 3450 3541 
Q 3450 3153 3228 2886 
Q 3006 2619 2597 2516 
z
" transform="scale(0.015625)"/>
       </defs>
       <use xlink:href="#DejaVuSans-33"/>
       <use xlink:href="#DejaVuSans-2e" x="63.623047"/>
       <use xlink:href="#DejaVuSans-30" x="95.410156"/>
      </g>
     </g>
    </g>
    <g id="xtick_7">
     <g id="line2d_13">
      <path d="M 105.756937 559.3824 
L 105.756937 7.2 
" clip-path="url(#pcf8eaa8ad5)" style="fill: none; stroke: #808080; stroke-opacity: 0.2; stroke-linecap: square"/>
     </g>
     <g id="line2d_14">
      <defs>
       <path id="m51b42b620c" d="M 0 0 
L 0 2 
" style="stroke: #000000; stroke-width: 0.6"/>
      </defs>
      <g>
       <use xlink:href="#m51b42b620c" x="105.756937" y="513.3672" style="stroke: #000000; stroke-width: 0.6"/>
      </g>
     </g>
    </g>
    <g id="xtick_8">
     <g id="line2d_15">
      <path d="M 182.448937 559.3824 
L 182.448937 7.2 
" clip-path="url(#pcf8eaa8ad5)" style="fill: none; stroke: #808080; stroke-opacity: 0.2; stroke-linecap: square"/>
     </g>
     <g id="line2d_16">
      <g>
       <use xlink:href="#m51b42b620c" x="182.448937" y="513.3672" style="stroke: #000000; stroke-width: 0.6"/>
      </g>
     </g>
    </g>
    <g id="xtick_9">
     <g id="line2d_17">
      <path d="M 259.140938 559.3824 
L 259.140938 7.2 
" clip-path="url(#pcf8eaa8ad5)" style="fill: none; stroke: #808080; stroke-opacity: 0.2; stroke-linecap: square"/>
     </g>
     <g id="line2d_18">
      <g>
       <use xlink:href="#m51b42b620c" x="259.140938" y="513.3672" style="stroke: #000000; stroke-width: 0.6"/>
      </g>
     </g>
    </g>
    <g id="xtick_10">
     <g id="line2d_19">
      <path d="M 335.832938 559.3824 
L 335.832938 7.2 
" clip-path="url(#pcf8eaa8ad5)" style="fill: none; stroke: #808080; stroke-opacity: 0.2; stroke-linecap: square"/>
     </g>
     <g id="line2d_20">
      <g>
       <use xlink:href="#m51b42b620c" x="335.832938" y="513.3672" style="stroke: #000000; stroke-width: 0.6"/>
      </g>
     </g>
    </g>
    <g id="xtick_11">
     <g id="line2d_21">
      <path d="M 412.524938 559.3824 
L 412.524938 7.2 
" clip-path="url(#pcf8eaa8ad5)" style="fill: none; stroke: #808080; stroke-opacity: 0.2; stroke-linecap: square"/>
     </g>
     <g id="line2d_22">
      <g>
       <use xlink:href="#m51b42b620c" x="412.524938" y="513.3672" style="stroke: #000000; stroke-width: 0.6"/>
      </g>
     </g>
    </g>
    <g id="xtick_12">
     <g id="line2d_23">
      <path d="M 489.216938 559.3824 
L 489.216938 7.2 
" clip-path="url(#pcf8eaa8ad5)" style="fill: none; stroke: #808080; stroke-opacity: 0.2; stroke-linecap: square"/>
     </g>
     <g id="line2d_24">
      <g>
       <use xlink:href="#m51b42b620c" x="489.216938" y="513.3672" style="stroke: #000000; stroke-width: 0.6"/>
      </g>
     </g>
    </g>
    <g id="text_7">
     <g id="patch_11">
      <path d="M 224.79475 568.240638 
L 370.179125 568.240638 
L 370.179125 540.884388 
L 224.79475 540.884388 
z
" style="fill: #ffffff; stroke: #ffffff; stroke-linejoin: miter"/>
     </g>
     <!-- Scaling factor -->
     <g transform="translate(228.79475 560.081263) scale(0.2 -0.2)">
      <defs>
       <path id="DejaVuSans-53" d="M 3425 4513 
L 3425 3897 
Q 3066 4069 2747 4153 
Q 2428 4238 2131 4238 
Q 1616 4238 1336 4038 
Q 1056 3838 1056 3469 
Q 1056 3159 1242 3001 
Q 1428 2844 1947 2747 
L 2328 2669 
Q 3034 2534 3370 2195 
Q 3706 1856 3706 1288 
Q 3706 609 3251 259 
Q 2797 -91 1919 -91 
Q 1588 -91 1214 -16 
Q 841 59 441 206 
L 441 856 
Q 825 641 1194 531 
Q 1563 422 1919 422 
Q 2459 422 2753 634 
Q 3047 847 3047 1241 
Q 3047 1584 2836 1778 
Q 2625 1972 2144 2069 
L 1759 2144 
Q 1053 2284 737 2584 
Q 422 2884 422 3419 
Q 422 4038 858 4394 
Q 1294 4750 2059 4750 
Q 2388 4750 2728 4690 
Q 3069 4631 3425 4513 
z
" transform="scale(0.015625)"/>
       <path id="DejaVuSans-63" d="M 3122 3366 
L 3122 2828 
Q 2878 2963 2633 3030 
Q 2388 3097 2138 3097 
Q 1578 3097 1268 2742 
Q 959 2388 959 1747 
Q 959 1106 1268 751 
Q 1578 397 2138 397 
Q 2388 397 2633 464 
Q 2878 531 3122 666 
L 3122 134 
Q 2881 22 2623 -34 
Q 2366 -91 2075 -91 
Q 1284 -91 818 406 
Q 353 903 353 1747 
Q 353 2603 823 3093 
Q 1294 3584 2113 3584 
Q 2378 3584 2631 3529 
Q 2884 3475 3122 3366 
z
" transform="scale(0.015625)"/>
       <path id="DejaVuSans-61" d="M 2194 1759 
Q 1497 1759 1228 1600 
Q 959 1441 959 1056 
Q 959 750 1161 570 
Q 1363 391 1709 391 
Q 2188 391 2477 730 
Q 2766 1069 2766 1631 
L 2766 1759 
L 2194 1759 
z
M 3341 1997 
L 3341 0 
L 2766 0 
L 2766 531 
Q 2569 213 2275 61 
Q 1981 -91 1556 -91 
Q 1019 -91 701 211 
Q 384 513 384 1019 
Q 384 1609 779 1909 
Q 1175 2209 1959 2209 
L 2766 2209 
L 2766 2266 
Q 2766 2663 2505 2880 
Q 2244 3097 1772 3097 
Q 1472 3097 1187 3025 
Q 903 2953 641 2809 
L 641 3341 
Q 956 3463 1253 3523 
Q 1550 3584 1831 3584 
Q 2591 3584 2966 3190 
Q 3341 2797 3341 1997 
z
" transform="scale(0.015625)"/>
       <path id="DejaVuSans-6c" d="M 603 4863 
L 1178 4863 
L 1178 0 
L 603 0 
L 603 4863 
z
" transform="scale(0.015625)"/>
       <path id="DejaVuSans-69" d="M 603 3500 
L 1178 3500 
L 1178 0 
L 603 0 
L 603 3500 
z
M 603 4863 
L 1178 4863 
L 1178 4134 
L 603 4134 
L 603 4863 
z
" transform="scale(0.015625)"/>
       <path id="DejaVuSans-6e" d="M 3513 2113 
L 3513 0 
L 2938 0 
L 2938 2094 
Q 2938 2591 2744 2837 
Q 2550 3084 2163 3084 
Q 1697 3084 1428 2787 
Q 1159 2491 1159 1978 
L 1159 0 
L 581 0 
L 581 3500 
L 1159 3500 
L 1159 2956 
Q 1366 3272 1645 3428 
Q 1925 3584 2291 3584 
Q 2894 3584 3203 3211 
Q 3513 2838 3513 2113 
z
" transform="scale(0.015625)"/>
       <path id="DejaVuSans-67" d="M 2906 1791 
Q 2906 2416 2648 2759 
Q 2391 3103 1925 3103 
Q 1463 3103 1205 2759 
Q 947 2416 947 1791 
Q 947 1169 1205 825 
Q 1463 481 1925 481 
Q 2391 481 2648 825 
Q 2906 1169 2906 1791 
z
M 3481 434 
Q 3481 -459 3084 -895 
Q 2688 -1331 1869 -1331 
Q 1566 -1331 1297 -1286 
Q 1028 -1241 775 -1147 
L 775 -588 
Q 1028 -725 1275 -790 
Q 1522 -856 1778 -856 
Q 2344 -856 2625 -561 
Q 2906 -266 2906 331 
L 2906 616 
Q 2728 306 2450 153 
Q 2172 0 1784 0 
Q 1141 0 747 490 
Q 353 981 353 1791 
Q 353 2603 747 3093 
Q 1141 3584 1784 3584 
Q 2172 3584 2450 3431 
Q 2728 3278 2906 2969 
L 2906 3500 
L 3481 3500 
L 3481 434 
z
" transform="scale(0.015625)"/>
       <path id="DejaVuSans-20" transform="scale(0.015625)"/>
       <path id="DejaVuSans-66" d="M 2375 4863 
L 2375 4384 
L 1825 4384 
Q 1516 4384 1395 4259 
Q 1275 4134 1275 3809 
L 1275 3500 
L 2222 3500 
L 2222 3053 
L 1275 3053 
L 1275 0 
L 697 0 
L 697 3053 
L 147 3053 
L 147 3500 
L 697 3500 
L 697 3744 
Q 697 4328 969 4595 
Q 1241 4863 1831 4863 
L 2375 4863 
z
" transform="scale(0.015625)"/>
       <path id="DejaVuSans-74" d="M 1172 4494 
L 1172 3500 
L 2356 3500 
L 2356 3053 
L 1172 3053 
L 1172 1153 
Q 1172 725 1289 603 
Q 1406 481 1766 481 
L 2356 481 
L 2356 0 
L 1766 0 
Q 1100 0 847 248 
Q 594 497 594 1153 
L 594 3053 
L 172 3053 
L 172 3500 
L 594 3500 
L 594 4494 
L 1172 4494 
z
" transform="scale(0.015625)"/>
       <path id="DejaVuSans-6f" d="M 1959 3097 
Q 1497 3097 1228 2736 
Q 959 2375 959 1747 
Q 959 1119 1226 758 
Q 1494 397 1959 397 
Q 2419 397 2687 759 
Q 2956 1122 2956 1747 
Q 2956 2369 2687 2733 
Q 2419 3097 1959 3097 
z
M 1959 3584 
Q 2709 3584 3137 3096 
Q 3566 2609 3566 1747 
Q 3566 888 3137 398 
Q 2709 -91 1959 -91 
Q 1206 -91 779 398 
Q 353 888 353 1747 
Q 353 2609 779 3096 
Q 1206 3584 1959 3584 
z
" transform="scale(0.015625)"/>
       <path id="DejaVuSans-72" d="M 2631 2963 
Q 2534 3019 2420 3045 
Q 2306 3072 2169 3072 
Q 1681 3072 1420 2755 
Q 1159 2438 1159 1844 
L 1159 0 
L 581 0 
L 581 3500 
L 1159 3500 
L 1159 2956 
Q 1341 3275 1631 3429 
Q 1922 3584 2338 3584 
Q 2397 3584 2469 3576 
Q 2541 3569 2628 3553 
L 2631 2963 
z
" transform="scale(0.015625)"/>
      </defs>
      <use xlink:href="#DejaVuSans-53"/>
      <use xlink:href="#DejaVuSans-63" x="63.476562"/>
      <use xlink:href="#DejaVuSans-61" x="118.457031"/>
      <use xlink:href="#DejaVuSans-6c" x="179.736328"/>
      <use xlink:href="#DejaVuSans-69" x="207.519531"/>
      <use xlink:href="#DejaVuSans-6e" x="235.302734"/>
      <use xlink:href="#DejaVuSans-67" x="298.681641"/>
      <use xlink:href="#DejaVuSans-20" x="362.158203"/>
      <use xlink:href="#DejaVuSans-66" x="393.945312"/>
      <use xlink:href="#DejaVuSans-61" x="429.150391"/>
      <use xlink:href="#DejaVuSans-63" x="490.429688"/>
      <use xlink:href="#DejaVuSans-74" x="545.410156"/>
      <use xlink:href="#DejaVuSans-6f" x="584.619141"/>
      <use xlink:href="#DejaVuSans-72" x="645.800781"/>
     </g>
    </g>
   </g>
   <g id="matplotlib.axis_2">
    <g id="ytick_1">
     <g id="line2d_25">
      <path d="M 21.395737 398.3292 
L 573.578138 398.3292 
" clip-path="url(#pcf8eaa8ad5)" style="fill: none; stroke: #808080; stroke-opacity: 0.2; stroke-linecap: square"/>
     </g>
     <g id="line2d_26">
      <defs>
       <path id="m970e214a6e" d="M 0 0 
L -3.5 0 
" style="stroke: #000000; stroke-width: 0.8"/>
      </defs>
      <g>
       <use xlink:href="#m970e214a6e" x="67.410937" y="398.3292" style="stroke: #000000; stroke-width: 0.8"/>
      </g>
     </g>
     <g id="text_8">
      <g id="patch_12">
       <path d="M 32.50625 411.197559 
L 64.460938 411.197559 
L 64.460938 388.580372 
L 32.50625 388.580372 
z
" style="fill: #ffffff; stroke: #ffffff; stroke-linejoin: miter"/>
      </g>
      <!-- 1.0 -->
      <g transform="translate(36.55625 404.028028) scale(0.15 -0.15)">
       <use xlink:href="#DejaVuSans-31"/>
       <use xlink:href="#DejaVuSans-2e" x="63.623047"/>
       <use xlink:href="#DejaVuSans-30" x="95.410156"/>
      </g>
     </g>
    </g>
    <g id="ytick_2">
     <g id="line2d_27">
      <path d="M 21.395737 283.2912 
L 573.578138 283.2912 
" clip-path="url(#pcf8eaa8ad5)" style="fill: none; stroke: #808080; stroke-opacity: 0.2; stroke-linecap: square"/>
     </g>
     <g id="line2d_28">
      <g>
       <use xlink:href="#m970e214a6e" x="67.410937" y="283.2912" style="stroke: #000000; stroke-width: 0.8"/>
      </g>
     </g>
     <g id="text_9">
      <g id="patch_13">
       <path d="M 32.50625 296.159559 
L 64.460938 296.159559 
L 64.460938 273.542372 
L 32.50625 273.542372 
z
" style="fill: #ffffff; stroke: #ffffff; stroke-linejoin: miter"/>
      </g>
      <!-- 2.0 -->
      <g transform="translate(36.55625 288.990028) scale(0.15 -0.15)">
       <use xlink:href="#DejaVuSans-32"/>
       <use xlink:href="#DejaVuSans-2e" x="63.623047"/>
       <use xlink:href="#DejaVuSans-30" x="95.410156"/>
      </g>
     </g>
    </g>
    <g id="ytick_3">
     <g id="line2d_29">
      <path d="M 21.395737 168.2532 
L 573.578138 168.2532 
" clip-path="url(#pcf8eaa8ad5)" style="fill: none; stroke: #808080; stroke-opacity: 0.2; stroke-linecap: square"/>
     </g>
     <g id="line2d_30">
      <g>
       <use xlink:href="#m970e214a6e" x="67.410937" y="168.2532" style="stroke: #000000; stroke-width: 0.8"/>
      </g>
     </g>
     <g id="text_10">
      <g id="patch_14">
       <path d="M 32.50625 181.121559 
L 64.460938 181.121559 
L 64.460938 158.504372 
L 32.50625 158.504372 
z
" style="fill: #ffffff; stroke: #ffffff; stroke-linejoin: miter"/>
      </g>
      <!-- 3.0 -->
      <g transform="translate(36.55625 173.952028) scale(0.15 -0.15)">
       <use xlink:href="#DejaVuSans-33"/>
       <use xlink:href="#DejaVuSans-2e" x="63.623047"/>
       <use xlink:href="#DejaVuSans-30" x="95.410156"/>
      </g>
     </g>
    </g>
    <g id="ytick_4">
     <g id="line2d_31">
      <path d="M 21.395737 53.2152 
L 573.578138 53.2152 
" clip-path="url(#pcf8eaa8ad5)" style="fill: none; stroke: #808080; stroke-opacity: 0.2; stroke-linecap: square"/>
     </g>
     <g id="line2d_32">
      <g>
       <use xlink:href="#m970e214a6e" x="67.410937" y="53.2152" style="stroke: #000000; stroke-width: 0.8"/>
      </g>
     </g>
     <g id="text_11">
      <g id="patch_15">
       <path d="M 32.50625 66.083559 
L 64.460938 66.083559 
L 64.460938 43.466372 
L 32.50625 43.466372 
z
" style="fill: #ffffff; stroke: #ffffff; stroke-linejoin: miter"/>
      </g>
      <!-- 4.0 -->
      <g transform="translate(36.55625 58.914028) scale(0.15 -0.15)">
       <defs>
        <path id="DejaVuSans-34" d="M 2419 4116 
L 825 1625 
L 2419 1625 
L 2419 4116 
z
M 2253 4666 
L 3047 4666 
L 3047 1625 
L 3713 1625 
L 3713 1100 
L 3047 1100 
L 3047 0 
L 2419 0 
L 2419 1100 
L 313 1100 
L 313 1709 
L 2253 4666 
z
" transform="scale(0.015625)"/>
       </defs>
       <use xlink:href="#DejaVuSans-34"/>
       <use xlink:href="#DejaVuSans-2e" x="63.623047"/>
       <use xlink:href="#DejaVuSans-30" x="95.410156"/>
      </g>
     </g>
    </g>
    <g id="ytick_5">
     <g id="line2d_33">
      <path d="M 21.395737 455.8482 
L 573.578138 455.8482 
" clip-path="url(#pcf8eaa8ad5)" style="fill: none; stroke: #808080; stroke-opacity: 0.2; stroke-linecap: square"/>
     </g>
     <g id="line2d_34">
      <defs>
       <path id="mb467f009b6" d="M 0 0 
L -2 0 
" style="stroke: #000000; stroke-width: 0.6"/>
      </defs>
      <g>
       <use xlink:href="#mb467f009b6" x="67.410937" y="455.8482" style="stroke: #000000; stroke-width: 0.6"/>
      </g>
     </g>
    </g>
    <g id="ytick_6">
     <g id="line2d_35">
      <path d="M 21.395737 340.8102 
L 573.578138 340.8102 
" clip-path="url(#pcf8eaa8ad5)" style="fill: none; stroke: #808080; stroke-opacity: 0.2; stroke-linecap: square"/>
     </g>
     <g id="line2d_36">
      <g>
       <use xlink:href="#mb467f009b6" x="67.410937" y="340.8102" style="stroke: #000000; stroke-width: 0.6"/>
      </g>
     </g>
    </g>
    <g id="ytick_7">
     <g id="line2d_37">
      <path d="M 21.395737 225.7722 
L 573.578138 225.7722 
" clip-path="url(#pcf8eaa8ad5)" style="fill: none; stroke: #808080; stroke-opacity: 0.2; stroke-linecap: square"/>
     </g>
     <g id="line2d_38">
      <g>
       <use xlink:href="#mb467f009b6" x="67.410937" y="225.7722" style="stroke: #000000; stroke-width: 0.6"/>
      </g>
     </g>
    </g>
    <g id="ytick_8">
     <g id="line2d_39">
      <path d="M 21.395737 110.7342 
L 573.578138 110.7342 
" clip-path="url(#pcf8eaa8ad5)" style="fill: none; stroke: #808080; stroke-opacity: 0.2; stroke-linecap: square"/>
     </g>
     <g id="line2d_40">
      <g>
       <use xlink:href="#mb467f009b6" x="67.410937" y="110.7342" style="stroke: #000000; stroke-width: 0.6"/>
      </g>
     </g>
    </g>
    <g id="text_12">
     <g id="patch_16">
      <path d="M 30.55625 351.575575 
L 30.55625 215.006825 
L 3.2 215.006825 
L 3.2 351.575575 
z
" style="fill: #ffffff; stroke: #ffffff; stroke-linejoin: miter"/>
     </g>
     <!-- ARAP energy -->
     <g transform="translate(22.396875 347.575575) rotate(-90) scale(0.2 -0.2)">
      <defs>
       <path id="DejaVuSans-41" d="M 2188 4044 
L 1331 1722 
L 3047 1722 
L 2188 4044 
z
M 1831 4666 
L 2547 4666 
L 4325 0 
L 3669 0 
L 3244 1197 
L 1141 1197 
L 716 0 
L 50 0 
L 1831 4666 
z
" transform="scale(0.015625)"/>
       <path id="DejaVuSans-52" d="M 2841 2188 
Q 3044 2119 3236 1894 
Q 3428 1669 3622 1275 
L 4263 0 
L 3584 0 
L 2988 1197 
Q 2756 1666 2539 1819 
Q 2322 1972 1947 1972 
L 1259 1972 
L 1259 0 
L 628 0 
L 628 4666 
L 2053 4666 
Q 2853 4666 3247 4331 
Q 3641 3997 3641 3322 
Q 3641 2881 3436 2590 
Q 3231 2300 2841 2188 
z
M 1259 4147 
L 1259 2491 
L 2053 2491 
Q 2509 2491 2742 2702 
Q 2975 2913 2975 3322 
Q 2975 3731 2742 3939 
Q 2509 4147 2053 4147 
L 1259 4147 
z
" transform="scale(0.015625)"/>
       <path id="DejaVuSans-50" d="M 1259 4147 
L 1259 2394 
L 2053 2394 
Q 2494 2394 2734 2622 
Q 2975 2850 2975 3272 
Q 2975 3691 2734 3919 
Q 2494 4147 2053 4147 
L 1259 4147 
z
M 628 4666 
L 2053 4666 
Q 2838 4666 3239 4311 
Q 3641 3956 3641 3272 
Q 3641 2581 3239 2228 
Q 2838 1875 2053 1875 
L 1259 1875 
L 1259 0 
L 628 0 
L 628 4666 
z
" transform="scale(0.015625)"/>
       <path id="DejaVuSans-65" d="M 3597 1894 
L 3597 1613 
L 953 1613 
Q 991 1019 1311 708 
Q 1631 397 2203 397 
Q 2534 397 2845 478 
Q 3156 559 3463 722 
L 3463 178 
Q 3153 47 2828 -22 
Q 2503 -91 2169 -91 
Q 1331 -91 842 396 
Q 353 884 353 1716 
Q 353 2575 817 3079 
Q 1281 3584 2069 3584 
Q 2775 3584 3186 3129 
Q 3597 2675 3597 1894 
z
M 3022 2063 
Q 3016 2534 2758 2815 
Q 2500 3097 2075 3097 
Q 1594 3097 1305 2825 
Q 1016 2553 972 2059 
L 3022 2063 
z
" transform="scale(0.015625)"/>
       <path id="DejaVuSans-79" d="M 2059 -325 
Q 1816 -950 1584 -1140 
Q 1353 -1331 966 -1331 
L 506 -1331 
L 506 -850 
L 844 -850 
Q 1081 -850 1212 -737 
Q 1344 -625 1503 -206 
L 1606 56 
L 191 3500 
L 800 3500 
L 1894 763 
L 2988 3500 
L 3597 3500 
L 2059 -325 
z
" transform="scale(0.015625)"/>
      </defs>
      <use xlink:href="#DejaVuSans-41"/>
      <use xlink:href="#DejaVuSans-52" x="68.408203"/>
      <use xlink:href="#DejaVuSans-41" x="133.890625"/>
      <use xlink:href="#DejaVuSans-50" x="202.298828"/>
      <use xlink:href="#DejaVuSans-20" x="262.601562"/>
      <use xlink:href="#DejaVuSans-65" x="294.388672"/>
      <use xlink:href="#DejaVuSans-6e" x="355.912109"/>
      <use xlink:href="#DejaVuSans-65" x="419.291016"/>
      <use xlink:href="#DejaVuSans-72" x="480.814453"/>
      <use xlink:href="#DejaVuSans-67" x="520.177734"/>
      <use xlink:href="#DejaVuSans-79" x="583.654297"/>
     </g>
    </g>
   </g>
   <g id="line2d_41">
    <path d="M -1 212.670483 
L -0.078022 205.129249 
L 1.455818 191.650271 
L 2.989658 177.14942 
L 4.523498 161.52693 
L 6.057338 144.67041 
L 7.591178 126.45288 
L 9.125018 106.730431 
L 10.658858 85.339452 
L 12.192698 62.093293 
L 13.726538 36.778265 
L 15.775365 -1 
M 119.04651 -1 
L 119.561498 9.148799 
L 121.095338 36.778265 
L 122.629178 62.093293 
L 124.163018 85.339452 
L 125.696858 106.730431 
L 127.230698 126.45288 
L 128.764538 144.67041 
L 130.298378 161.52693 
L 133.366058 191.650271 
L 136.433738 217.675158 
L 139.501418 240.276463 
L 142.569098 259.994206 
L 145.636778 277.26464 
L 148.704458 292.443292 
L 151.772138 305.822248 
L 154.839818 317.643266 
L 157.907498 328.107835 
L 160.975178 337.384966 
L 164.042858 345.617274 
L 167.110538 352.925778 
L 170.178218 359.413706 
L 173.245898 365.16955 
L 176.313578 370.269511 
L 179.381258 374.779502 
L 182.448938 378.756763 
L 185.516618 382.251198 
L 188.584298 385.306477 
L 191.651978 387.960946 
L 194.719658 390.248385 
L 197.787338 392.19865 
L 200.855018 393.838203 
L 203.922698 395.190569 
L 206.990378 396.276714 
L 210.058058 397.115375 
L 213.125738 397.723339 
L 216.193418 398.115678 
L 219.261098 398.305959 
L 222.328778 398.30642 
L 225.396458 398.128119 
L 228.464138 397.781074 
L 231.531818 397.274375 
L 236.133338 396.232846 
L 240.734858 394.875375 
L 245.336378 393.223647 
L 249.937898 391.29665 
L 254.539418 389.111067 
L 259.140938 386.681602 
L 263.742458 384.021259 
L 268.343978 381.141567 
L 272.945498 378.05278 
L 279.080858 373.624803 
L 285.216218 368.860298 
L 291.351578 363.775744 
L 297.486938 358.38545 
L 303.622298 352.701893 
L 309.757658 346.73599 
L 315.893018 340.497327 
L 322.028378 333.99435 
L 329.697578 325.505224 
L 337.366778 316.627454 
L 345.035978 307.372048 
L 352.705178 297.748557 
L 360.374378 287.765299 
L 368.043578 277.429542 
L 375.712778 266.747664 
L 383.381978 255.725278 
L 391.051178 244.367339 
L 400.254218 230.301026 
L 409.457258 215.764475 
L 418.660298 200.763486 
L 427.863338 185.303131 
L 437.066378 169.387858 
L 446.269418 153.02158 
L 455.472458 136.207753 
L 464.675498 118.949437 
L 473.878538 101.24935 
L 483.081578 83.109911 
L 492.284618 64.533282 
L 501.487658 45.521396 
L 512.224538 22.793052 
L 522.961418 -0.52291 
L 523.178004 -1 
L 523.178004 -1 
" clip-path="url(#pcf8eaa8ad5)" style="fill: none; stroke: #1f77b4; stroke-width: 2; stroke-linecap: square"/>
   </g>
  </g>
 </g>
 <defs>
  <clipPath id="pcf8eaa8ad5">
   <rect x="21.395737" y="7.2" width="552.1824" height="552.1824"/>
  </clipPath>
 </defs>
</svg>
